<svg width="512" height="512" viewBox="0 0 512 512" fill="none" xmlns="http://www.w3.org/2000/svg" role="img" aria-labelledby="title desc">
  <title id="title">FormForge logo</title>
  <desc id="desc">A forged shield with a form document and lightning mark.</desc>
  <rect width="512" height="512" rx="112" fill="url(#bg)"/>
  <path d="M256 74L397 132V243C397 333 339 412 256 438C173 412 115 333 115 243V132L256 74Z" fill="url(#shield)" stroke="rgba(255,255,255,.72)" stroke-width="14"/>
  <path d="M186 155C186 142.85 195.85 133 208 133H306L354 181V348C354 360.15 344.15 370 332 370H208C195.85 370 186 360.15 186 348V155Z" fill="white"/>
  <path d="M306 133V175C306 181.627 311.373 187 318 187H354" fill="#DBEAFE"/>
  <rect x="218" y="215" width="108" height="18" rx="9" fill="#2563EB"/>
  <rect x="218" y="257" width="74" height="18" rx="9" fill="#38BDF8"/>
  <rect x="218" y="299" width="92" height="18" rx="9" fill="#0F172A"/>
  <path d="M300 218L260 285H300L279 338L340 255H303L330 218H300Z" fill="#F59E0B" stroke="#0F172A" stroke-width="8" stroke-linejoin="round"/>
  <defs>
    <linearGradient id="bg" x1="66" y1="49" x2="456" y2="462" gradientUnits="userSpaceOnUse">
      <stop stop-color="#020617"/>
      <stop offset="0.42" stop-color="#1D4ED8"/>
      <stop offset="1" stop-color="#06B6D4"/>
    </linearGradient>
    <linearGradient id="shield" x1="155" y1="99" x2="361" y2="427" gradientUnits="userSpaceOnUse">
      <stop stop-color="#60A5FA" stop-opacity=".96"/>
      <stop offset="1" stop-color="#0F172A" stop-opacity=".92"/>
    </linearGradient>
  </defs>
</svg>
